<?xml version="1.0" encoding="utf-8"?>
<!-- Generator: Adobe Illustrator 22.1.0, SVG Export Plug-In . SVG Version: 6.00 Build 0)  -->
<svg version="1.1" id="Layer_1" xmlns="http://www.w3.org/2000/svg" xmlns:xlink="http://www.w3.org/1999/xlink" x="0px" y="0px"
	 viewBox="0 0 476.7 186.7" style="enable-background:new 0 0 476.7 186.7;" xml:space="preserve">
<style type="text/css">
	.st0{fill:none;stroke:#C7A631;stroke-width:4;stroke-miterlimit:10;}
	.st1{fill:#303C6C;}
</style>
<g>
	<polyline class="st0" points="3.3,51.9 3.3,3.3 473.3,3.3 473.3,51.9 	"/>
	<polyline class="st0" points="473.3,134.7 473.3,183.2 3.3,183.2 3.3,134.7 	"/>
</g>
<g>
	<g>
		<g>
			<path class="st1" d="M87.2,81c0,12.8-7.8,19.7-17.4,19.7c-9.9,0-16.8-7.7-16.8-19C53,69.8,60.3,62,70.3,62
				C80.5,62,87.2,69.9,87.2,81z M58.1,81.6c0,8,4.3,15.2,12,15.2c7.7,0,12-7,12-15.5C82,73.7,78.2,66,70.1,66
				C62.1,66,58.1,73.4,58.1,81.6z"/>
			<path class="st1" d="M103.9,100V62.6h5.3l12,18.9c2.7,4.4,4.9,8.3,6.7,12.2l0.1-0.1c-0.4-5-0.5-9.6-0.5-15.3V62.6h4.5V100h-4.9
				l-11.9-19c-2.6-4.2-5.1-8.5-7-12.5l-0.2,0.1c0.3,4.7,0.4,9.2,0.4,15.4v16H103.9z"/>
			<path class="st1" d="M170.4,82.5h-14.5V96h16.2v4H151V62.6h20.2v4h-15.4v11.8h14.5V82.5z"/>
			<path class="st1" d="M188.8,63.2c2.1-0.5,5.5-0.8,8.8-0.8c4.8,0,7.9,0.8,10.3,2.7c1.9,1.5,3.1,3.7,3.1,6.6c0,3.6-2.4,6.8-6.3,8.2
				V80c3.6,0.9,7.7,3.8,7.7,9.4c0,3.2-1.3,5.7-3.2,7.5c-2.6,2.4-6.8,3.5-12.9,3.5c-3.3,0-5.9-0.2-7.5-0.4V63.2z M193.6,78.5h4.4
				c5.1,0,8.1-2.7,8.1-6.3c0-4.3-3.3-6.1-8.2-6.1c-2.2,0-3.5,0.2-4.3,0.3V78.5z M193.6,96.4c1,0.2,2.3,0.2,4.1,0.2
				c5,0,9.6-1.8,9.6-7.3c0-5.1-4.4-7.2-9.7-7.2h-4V96.4z"/>
			<path class="st1" d="M234.3,62.6V100h-4.9V62.6H234.3z"/>
			<path class="st1" d="M281.8,98.4c-2.2,0.8-6.5,2.1-11.5,2.1c-5.7,0-10.3-1.4-14-4.9c-3.2-3.1-5.2-8.1-5.2-13.9
				c0-11.2,7.7-19.3,20.2-19.3c4.3,0,7.7,1,9.4,1.7l-1.2,3.9c-2-0.9-4.5-1.6-8.3-1.6c-9.1,0-15,5.6-15,15c0,9.5,5.7,15.1,14.4,15.1
				c3.2,0,5.3-0.4,6.4-1V84.3h-7.6v-3.9h12.3V98.4z"/>
			<path class="st1" d="M299.7,63.2c2.1-0.5,5.5-0.8,8.8-0.8c4.8,0,7.9,0.8,10.3,2.7c1.9,1.5,3.1,3.7,3.1,6.6c0,3.6-2.4,6.8-6.3,8.2
				V80c3.6,0.9,7.7,3.8,7.7,9.4c0,3.2-1.3,5.7-3.2,7.5c-2.6,2.4-6.8,3.5-12.9,3.5c-3.3,0-5.9-0.2-7.5-0.4V63.2z M304.5,78.5h4.4
				c5.1,0,8.1-2.7,8.1-6.3c0-4.3-3.3-6.1-8.2-6.1c-2.2,0-3.5,0.2-4.3,0.3V78.5z M304.5,96.4c1,0.2,2.3,0.2,4.1,0.2
				c5,0,9.6-1.8,9.6-7.3c0-5.1-4.4-7.2-9.7-7.2h-4V96.4z"/>
			<path class="st1" d="M372.3,81c0,12.8-7.8,19.7-17.4,19.7c-9.9,0-16.8-7.7-16.8-19c0-11.9,7.3-19.6,17.3-19.6
				C365.7,62,372.3,69.9,372.3,81z M343.3,81.6c0,8,4.3,15.2,12,15.2c7.7,0,12-7,12-15.5c0-7.4-3.9-15.2-11.9-15.2
				C347.3,66,343.3,73.4,343.3,81.6z"/>
			<path class="st1" d="M409.6,100l-4.8-8.3c-1.9-3.2-3.1-5.2-4.3-7.4h-0.1c-1,2.2-2.1,4.2-4,7.4l-4.5,8.2h-5.6l11.5-18.9l-11-18.5
				h5.6l5,8.8c1.4,2.4,2.4,4.3,3.5,6.3h0.1c1.1-2.2,2-3.9,3.4-6.3l5.1-8.8h5.6l-11.4,18.2l11.7,19.2H409.6z"/>
		</g>
	</g>
	<g>
		<g>
			<g>
				<path class="st1" d="M110.1,127.1c-0.4,0-0.7,0-1,0c-0.3,0-0.6,0-1,0v-12.2h-5v-1.5h11.8v1.5h-5V127.1z"/>
				<path class="st1" d="M130.3,115c1.3,1.3,1.9,3.1,1.9,5.3c0,2.2-0.6,4-1.9,5.3c-1.3,1.3-3,2-5.2,2c-2.2,0-3.9-0.7-5.2-2
					c-1.2-1.3-1.9-3.1-1.9-5.3c0-2.2,0.6-4,1.9-5.3c1.3-1.3,3-1.9,5.2-1.9C127.3,113,129.1,113.7,130.3,115z M121.5,116.1
					c-0.9,1-1.4,2.4-1.4,4.1c0,1.7,0.4,3.1,1.3,4.1c0.9,1,2.1,1.5,3.7,1.5c1.6,0,2.8-0.5,3.7-1.5c0.9-1,1.4-2.4,1.4-4.1
					c0-1.7-0.5-3.1-1.4-4.1s-2.1-1.5-3.7-1.5C123.6,114.6,122.4,115.1,121.5,116.1z"/>
				<path class="st1" d="M136.2,113.3c1.1,0,1.9,0,2.6,0c0.7,0,1.6,0,2.6,0c2.3,0,4.1,0.6,5.3,1.8c1.3,1.2,1.9,2.9,1.9,5.1
					s-0.6,3.9-1.9,5.1c-1.3,1.2-3.1,1.8-5.3,1.8h-5.3V113.3z M138.1,114.9c0,1,0,2,0,2.8s0,1.7,0,2.6s0,1.8,0,2.6s0,1.7,0,2.8h3.2
					c1.7,0,3.1-0.5,4-1.4c0.9-0.9,1.4-2.2,1.4-3.9c0-1.7-0.5-3-1.4-3.9s-2.3-1.4-4-1.4H138.1z"/>
				<path class="st1" d="M164.3,115c1.3,1.3,1.9,3.1,1.9,5.3c0,2.2-0.6,4-1.9,5.3c-1.3,1.3-3,2-5.2,2c-2.2,0-3.9-0.7-5.2-2
					c-1.2-1.3-1.9-3.1-1.9-5.3c0-2.2,0.6-4,1.9-5.3c1.3-1.3,3-1.9,5.2-1.9C161.3,113,163,113.7,164.3,115z M155.4,116.1
					c-0.9,1-1.4,2.4-1.4,4.1c0,1.7,0.4,3.1,1.3,4.1c0.9,1,2.1,1.5,3.7,1.5c1.6,0,2.8-0.5,3.7-1.5c0.9-1,1.4-2.4,1.4-4.1
					c0-1.7-0.5-3.1-1.4-4.1s-2.1-1.5-3.7-1.5C157.6,114.6,156.3,115.1,155.4,116.1z"/>
				<path class="st1" d="M202.1,125.6c0,0.3,0,0.6,0,0.8s0,0.5,0,0.8h-9.5v-13.8h9.5v1.5h-7.6v4.4h7.2v1.5h-7.2v4.7H202.1z"/>
				<path class="st1" d="M208.2,127.1c-0.4,0-0.7,0-0.9,0c-0.2,0-0.6,0-0.9,0v-13.8h1.9l8.3,10.7h0.2v-10.7h1.9v13.8h-1.9l-8.3-10.7
					h-0.2V127.1z"/>
				<path class="st1" d="M247.4,113.3c0,1.2,0,2.2,0,3.1s0,1.8,0,2.7c0,0.9,0,1.9,0,3.1c0,1,0.4,1.9,1.1,2.6c0.7,0.7,1.8,1,3.1,1
					c1.3,0,2.4-0.3,3.1-1c0.7-0.7,1.1-1.5,1.1-2.6v-8.9h1.9v9c0,1.5-0.5,2.7-1.6,3.6c-1.1,1-2.6,1.4-4.5,1.4c-1.9,0-3.4-0.5-4.5-1.4
					c-1.1-1-1.6-2.2-1.6-3.6v-9H247.4z"/>
				<path class="st1" d="M264.2,127.1c-0.4,0-0.7,0-0.9,0c-0.2,0-0.6,0-0.9,0v-13.8h1.9l8.3,10.7h0.2v-10.7h1.9v13.8h-1.9l-8.3-10.7
					h-0.2V127.1z"/>
				<path class="st1" d="M289.1,127.1c-0.3-0.8-0.6-1.5-0.8-2s-0.5-1.2-0.8-2h-6.1l-1.5,3.9h-2l5.7-13.8h1.9l5.7,13.8H289.1z
					 M284.4,115.6c-0.3,0.8-0.6,1.5-0.8,2.2c-0.2,0.6-0.5,1.2-0.7,1.8c-0.2,0.6-0.5,1.3-0.8,2.2h5l-2.4-6.1H284.4z"/>
				<path class="st1" d="M318.2,125.5c-1.2-1.3-1.8-3-1.8-5.3c0-2.2,0.6-4,1.8-5.3c1.2-1.3,2.9-1.9,5-1.9c1.6,0,3,0.4,4.2,1.2
					c1.1,0.8,1.8,1.9,2.1,3.2h-1.9c-0.3-0.9-0.8-1.6-1.5-2.1c-0.8-0.5-1.7-0.8-2.7-0.8c-1.5,0-2.6,0.5-3.5,1.5s-1.3,2.4-1.3,4.1
					c0,1.7,0.4,3.1,1.3,4.1c0.9,1,2,1.5,3.5,1.5c1.1,0,2-0.2,2.8-0.7c0.8-0.5,1.3-1.1,1.5-1.9h1.9c-0.3,1.3-0.9,2.3-2.1,3
					s-2.5,1.1-4.1,1.1C321,127.4,319.4,126.8,318.2,125.5z"/>
				<path class="st1" d="M343.2,127.1c-0.3-0.8-0.6-1.5-0.8-2s-0.5-1.2-0.8-2h-6.1l-1.5,3.9h-2l5.7-13.8h1.9l5.7,13.8H343.2z
					 M338.5,115.6c-0.3,0.8-0.6,1.5-0.8,2.2c-0.2,0.6-0.5,1.2-0.7,1.8c-0.2,0.6-0.5,1.3-0.8,2.2h5l-2.4-6.1H338.5z"/>
				<path class="st1" d="M347.5,123.9c0.4,0,0.7,0,1,0s0.6,0,1,0c0,0.6,0.3,1,0.7,1.4c0.5,0.4,1,0.5,1.8,0.5c0.8,0,1.5-0.2,1.9-0.7
					c0.4-0.4,0.7-1.1,0.7-1.9v-9.9h1.9v9.9c0,1.3-0.4,2.3-1.2,3.1s-1.9,1.1-3.3,1.1c-1.3,0-2.3-0.3-3.2-1
					C347.9,125.8,347.5,124.9,347.5,123.9z"/>
				<path class="st1" d="M370.9,127.1c-0.3-0.8-0.6-1.5-0.8-2s-0.5-1.2-0.8-2h-6.1l-1.5,3.9h-2l5.7-13.8h1.9l5.7,13.8H370.9z
					 M366.2,115.6c-0.3,0.8-0.6,1.5-0.8,2.2c-0.2,0.6-0.5,1.2-0.7,1.8c-0.2,0.6-0.5,1.3-0.8,2.2h5l-2.4-6.1H366.2z"/>
			</g>
		</g>
	</g>
</g>
</svg>
