<?xml version="1.0" encoding="utf-8"?>
<!-- Generator: Adobe Illustrator 22.1.0, SVG Export Plug-In . SVG Version: 6.00 Build 0)  -->
<svg version="1.1" id="Layer_1" xmlns="http://www.w3.org/2000/svg" xmlns:xlink="http://www.w3.org/1999/xlink" x="0px" y="0px"
	 viewBox="0 0 240 98.1" style="enable-background:new 0 0 240 98.1;" xml:space="preserve">
<style type="text/css">
	.st0{fill:#F2A22C;}
	.st1{fill:#010101;}
	.st2{font-family:'GoboldThinLight';}
	.st3{font-size:41.6853px;}
	.st4{letter-spacing:1;}
	.st5{fill:#FFFFFF;}
	.st6{font-family:'KannadaSangamMN-Bold';}
	.st7{font-size:12.7225px;}
	.st8{letter-spacing:1.6;}
</style>
<rect x="2.7" y="66.8" class="st0" width="237.3" height="31.2"/>
<text transform="matrix(1 0 0 1 51.9678 56.9497)" class="st1 st2 st3 st4">ONEBIGBOX</text>
<text transform="matrix(1.221 0 0 1 51.9668 88.4844)" class="st5 st6 st7 st8">TODO EN UNA CAJA</text>
<g>
	<g>
		<path class="st0" d="M8.5,6.4C8.3,4.8,7.9,5,7.9,5C7,7.3,7.2,19.9,7.2,19.9c-0.1,0.3-0.3,0.5-0.7,0.6C6.5,19.2,6,9.9,5.9,6.5
			c0,0-0.2-1.6-0.5-1.5c0,0-0.3-0.2-0.3,1.4c0,1.6,0,12.5-0.2,13.9c-0.1,0-0.1,0-0.2,0v0c0,0,0,0,0,0c0,0,0,0,0,0v0c0,0-0.1,0-0.2,0
			C4.4,18.7,3.9,9.8,3.8,6.5c0,0-0.2-1.6-0.5-1.5c0,0-0.3-0.2-0.3,1.4c0,1.6,0,13.2-0.2,14c-0.3-0.1-0.6-0.2-0.7-0.6
			c0,0,0.2-12.6-0.7-14.8c0,0-0.5-0.3-0.6,1.3C0.8,8-1.3,21.8,1.3,24.8c2.6,3,2.7,2.8,2.5,5.2c-0.1,2.3-2.1,18.1-1.2,36.2
			c0,0,0.2,7.4,1,7.4l1,0c0.1,0,0.1,0,0.1,0l1,0c0.8,0,1-7.4,1-7.4C7.7,48.1,5.7,32.4,5.6,30c-0.1-2.4,0-2.2,2.5-5.2
			C10.6,21.8,8.6,8,8.5,6.4z"/>
		<path class="st0" d="M22.6,34.8c0,0,3.8-29.5,0.1-34.8c0,0-5,0.5-5.7,24c0,0,0,2.4,1.8,5.7c1,1.9,1.2,3.9,1.2,5.2
			c-0.6,6.5-1.4,18.2-0.7,31.3c0,0,0.2,7.4,1,7.4h1c0.1,0,0.1,0,0.1,0h1c0.8,0,1-7.4,1-7.4C24,53.1,23.2,41.3,22.6,34.8L22.6,34.8z"
			/>
		<path class="st0" d="M40.3,27.6c1-0.5,6.6-3.7,6.3-10.9C46.3,9.4,40,4.3,38.3,4.9c-1.7-0.6-8,4.4-8.4,11.7
			c-0.3,7.3,5.2,10.5,6.2,11c1,0.5,0.2,7.8,0.2,7.8c-0.7,11.3-0.3,37-0.3,37c0.1,1.5,1.9,1.2,1.9,1.2s1.8,0.4,1.9-1.1
			c0,0,0.8-25.8,0.2-37C40,35.4,39.3,28.1,40.3,27.6z"/>
	</g>
</g>
</svg>
